# xmcd
#
# Track frame offsets:
#   150
#   17316
#   109575
#   165599
#
# Disc length: 2565 seconds
#
# Revision: 0
# Processed by: cddbd v1.5.2PL0 Copyright (c) Steve Scherf et al.
# Submitted via: audiograbber 1.83.01
#
DISCID=1e0a0304
DTITLE=E Nomine / Das Beste aus... Gottes Beitrag Teufel Werk - CD 02
DYEAR=2004
DGENRE=Rock
TTITLE0=Drachengold
TTITLE1=E Nomine... Der Hitmix
TTITLE2=Klassik Medley
TTITLE3=Deine Welt (Orchester Version)
EXTD=
EXTT0=
EXTT1=
EXTT2=
EXTT3=
PLAYORDER=
.
